<svg width="23" height="30" viewBox="0 0 23 30" fill="none" xmlns="http://www.w3.org/2000/svg">
<path d="M11.5 6.55878C10.4122 6.55878 9.34883 6.88135 8.44436 7.48569C7.53989 8.09004 6.83495 8.94902 6.41866 9.95402C6.00238 10.959 5.89346 12.0649 6.10568 13.1318C6.3179 14.1987 6.84172 15.1787 7.61091 15.9479C8.3801 16.7171 9.36011 17.2409 10.427 17.4531C11.4939 17.6653 12.5998 17.5564 13.6048 17.1401C14.6098 16.7238 15.4687 16.0189 16.0731 15.1144C16.6774 14.2099 17 13.1466 17 12.0588C16.9983 10.6006 16.4184 9.20261 15.3873 8.17152C14.3562 7.14042 12.9582 6.56043 11.5 6.55878ZM11.5 14.5588C11.0055 14.5588 10.5222 14.4122 10.1111 14.1375C9.69995 13.8627 9.37952 13.4723 9.1903 13.0155C9.00108 12.5587 8.95157 12.056 9.04804 11.5711C9.1445 11.0861 9.3826 10.6406 9.73223 10.291C10.0819 9.94138 10.5273 9.70328 11.0123 9.60681C11.4972 9.51035 11.9999 9.55986 12.4567 9.74908C12.9135 9.9383 13.304 10.2587 13.5787 10.6699C13.8534 11.081 14 11.5643 14 12.0588C14 12.7218 13.7366 13.3577 13.2678 13.8265C12.7989 14.2954 12.163 14.5588 11.5 14.5588ZM11.5 0.558777C8.45103 0.562086 5.52788 1.77475 3.37193 3.9307C1.21597 6.08665 0.00330871 9.0098 0 12.0588C0 21.7288 10.205 28.9838 10.64 29.2875C10.8921 29.4639 11.1923 29.5585 11.5 29.5585C11.8077 29.5585 12.1079 29.4639 12.36 29.2875C14.2928 27.8631 16.0612 26.228 17.6325 24.4125C21.1437 20.38 23 16.105 23 12.0588C22.9967 9.0098 21.784 6.08665 19.6281 3.9307C17.4721 1.77475 14.549 0.562086 11.5 0.558777ZM15.4125 22.3975C14.2207 23.7666 12.9115 25.0288 11.5 26.17C10.0885 25.0288 8.77933 23.7666 7.5875 22.3975C5.5 19.98 3 16.2225 3 12.0588C3 9.80444 3.89553 7.64243 5.48959 6.04837C7.08365 4.45431 9.24566 3.55878 11.5 3.55878C13.7543 3.55878 15.9163 4.45431 17.5104 6.04837C19.1045 7.64243 20 9.80444 20 12.0588C20 16.2225 17.5 19.98 15.4125 22.3975Z" fill="#6DA04D"/>
</svg>
