<svg width="250" height="36" viewBox="0 0 250 36" fill="none" xmlns="http://www.w3.org/2000/svg">
<path d="M18.0001 9.79688C18.0001 14.3273 14.2996 18 9.73479 18H1.46948V9.79688C1.46948 5.26641 5.16998 1.59375 9.73479 1.59375C14.2996 1.59375 18.0001 5.26641 18.0001 9.79688Z" fill="#17CF97"/>
<path d="M18 26.2031C18 21.6727 21.7005 18 26.2653 18H34.5306V26.2031C34.5306 30.7336 30.8301 34.4062 26.2653 34.4062C21.7005 34.4062 18 30.7336 18 26.2031Z" fill="#17CF97"/>
<path d="M1.46948 26.2031C1.46948 30.7336 5.16998 34.4062 9.73479 34.4062H18.0001V26.2031C18.0001 21.6727 14.2996 18 9.73479 18C5.16998 18 1.46948 21.6727 1.46948 26.2031Z" fill="#17CF97"/>
<path d="M34.5306 9.79688C34.5306 5.26641 30.8301 1.59375 26.2653 1.59375H18V9.79688C18 14.3273 21.7005 18 26.2653 18C30.8301 18 34.5306 14.3273 34.5306 9.79688Z" fill="#17CF97"/>
<path d="M60.752 8.1H64.912V30.5H60.752V8.1ZM49.168 30.5H45.008V8.1H49.168V30.5ZM61.072 20.9H48.816V17.348H61.072V20.9ZM74.7543 17.412H85.8903V20.836H74.7543V17.412ZM75.0743 27.012H87.7143V30.5H70.9143V8.1H87.2663V11.588H75.0743V27.012ZM95.8398 30.82C94.4104 30.82 93.0878 30.5427 91.8718 29.988C90.6771 29.4333 89.6958 28.6333 88.9277 27.588L91.2958 24.74C91.9144 25.5933 92.5864 26.2333 93.3118 26.66C94.0584 27.0867 94.8691 27.3 95.7438 27.3C98.0691 27.3 99.2318 25.924 99.2318 23.172V11.588H91.2638V8.1H103.392V22.948C103.392 25.5933 102.741 27.5667 101.44 28.868C100.16 30.1693 98.2931 30.82 95.8398 30.82ZM119.723 30.82C117.973 30.82 116.363 30.532 114.891 29.956C113.419 29.38 112.139 28.58 111.051 27.556C109.963 26.5107 109.12 25.2947 108.523 23.908C107.925 22.5 107.627 20.964 107.627 19.3C107.627 17.636 107.925 16.1107 108.523 14.724C109.12 13.316 109.963 12.1 111.051 11.076C112.139 10.0307 113.419 9.22 114.891 8.644C116.363 8.068 117.963 7.78 119.691 7.78C121.44 7.78 123.04 8.068 124.491 8.644C125.963 9.22 127.243 10.0307 128.331 11.076C129.419 12.1 130.261 13.316 130.859 14.724C131.456 16.1107 131.755 17.636 131.755 19.3C131.755 20.964 131.456 22.5 130.859 23.908C130.261 25.316 129.419 26.532 128.331 27.556C127.243 28.58 125.963 29.38 124.491 29.956C123.04 30.532 121.451 30.82 119.723 30.82ZM119.691 27.172C120.821 27.172 121.867 26.98 122.827 26.596C123.787 26.212 124.619 25.668 125.323 24.964C126.027 24.2387 126.571 23.4067 126.955 22.468C127.36 21.508 127.563 20.452 127.563 19.3C127.563 18.148 127.36 17.1027 126.955 16.164C126.571 15.204 126.027 14.372 125.323 13.668C124.619 12.9427 123.787 12.388 122.827 12.004C121.867 11.62 120.821 11.428 119.691 11.428C118.56 11.428 117.515 11.62 116.555 12.004C115.616 12.388 114.784 12.9427 114.059 13.668C113.355 14.372 112.8 15.204 112.395 16.164C112.011 17.1027 111.819 18.148 111.819 19.3C111.819 20.4307 112.011 21.476 112.395 22.436C112.8 23.396 113.355 24.2387 114.059 24.964C114.763 25.668 115.595 26.212 116.555 26.596C117.515 26.98 118.56 27.172 119.691 27.172ZM136.164 30.5V8.1H145.38C147.364 8.1 149.06 8.42 150.468 9.06C151.898 9.7 152.996 10.6173 153.764 11.812C154.532 13.0067 154.916 14.4253 154.916 16.068C154.916 17.7107 154.532 19.1293 153.764 20.324C152.996 21.5187 151.898 22.436 150.468 23.076C149.06 23.716 147.364 24.036 145.38 24.036H138.468L140.324 22.084V30.5H136.164ZM140.324 22.532L138.468 20.516H145.188C147.023 20.516 148.399 20.132 149.316 19.364C150.255 18.5747 150.724 17.476 150.724 16.068C150.724 14.6387 150.255 13.54 149.316 12.772C148.399 12.004 147.023 11.62 145.188 11.62H138.468L140.324 9.572V22.532ZM159.071 30.5V8.1H168.287C170.271 8.1 171.967 8.42 173.375 9.06C174.804 9.7 175.903 10.6173 176.671 11.812C177.439 13.0067 177.823 14.4253 177.823 16.068C177.823 17.7107 177.439 19.1293 176.671 20.324C175.903 21.4973 174.804 22.404 173.375 23.044C171.967 23.6627 170.271 23.972 168.287 23.972H161.375L163.231 22.084V30.5H159.071ZM173.727 30.5L168.063 22.372H172.51L178.207 30.5H173.727ZM163.231 22.532L161.375 20.548H168.095C169.929 20.548 171.305 20.1533 172.222 19.364C173.161 18.5747 173.631 17.476 173.631 16.068C173.631 14.6387 173.161 13.54 172.222 12.772C171.305 12.004 169.929 11.62 168.095 11.62H161.375L163.231 9.572V22.532ZM192.973 30.82C191.223 30.82 189.613 30.532 188.141 29.956C186.669 29.38 185.389 28.58 184.301 27.556C183.213 26.5107 182.37 25.2947 181.773 23.908C181.175 22.5 180.877 20.964 180.877 19.3C180.877 17.636 181.175 16.1107 181.773 14.724C182.37 13.316 183.213 12.1 184.301 11.076C185.389 10.0307 186.669 9.22 188.141 8.644C189.613 8.068 191.213 7.78 192.941 7.78C194.69 7.78 196.29 8.068 197.741 8.644C199.213 9.22 200.493 10.0307 201.581 11.076C202.669 12.1 203.511 13.316 204.109 14.724C204.706 16.1107 205.005 17.636 205.005 19.3C205.005 20.964 204.706 22.5 204.109 23.908C203.511 25.316 202.669 26.532 201.581 27.556C200.493 28.58 199.213 29.38 197.741 29.956C196.29 30.532 194.701 30.82 192.973 30.82ZM192.941 27.172C194.071 27.172 195.117 26.98 196.077 26.596C197.037 26.212 197.869 25.668 198.573 24.964C199.277 24.2387 199.821 23.4067 200.205 22.468C200.61 21.508 200.813 20.452 200.813 19.3C200.813 18.148 200.61 17.1027 200.205 16.164C199.821 15.204 199.277 14.372 198.573 13.668C197.869 12.9427 197.037 12.388 196.077 12.004C195.117 11.62 194.071 11.428 192.941 11.428C191.81 11.428 190.765 11.62 189.805 12.004C188.866 12.388 188.034 12.9427 187.309 13.668C186.605 14.372 186.05 15.204 185.645 16.164C185.261 17.1027 185.069 18.148 185.069 19.3C185.069 20.4307 185.261 21.476 185.645 22.436C186.05 23.396 186.605 24.2387 187.309 24.964C188.013 25.668 188.845 26.212 189.805 26.596C190.765 26.98 191.81 27.172 192.941 27.172ZM209.414 30.5V8.1H218.63C220.614 8.1 222.31 8.42 223.718 9.06C225.148 9.7 226.246 10.6173 227.014 11.812C227.782 13.0067 228.166 14.4253 228.166 16.068C228.166 17.7107 227.782 19.1293 227.014 20.324C226.246 21.5187 225.148 22.436 223.718 23.076C222.31 23.716 220.614 24.036 218.63 24.036H211.718L213.574 22.084V30.5H209.414ZM213.574 22.532L211.718 20.516H218.438C220.273 20.516 221.649 20.132 222.566 19.364C223.505 18.5747 223.974 17.476 223.974 16.068C223.974 14.6387 223.505 13.54 222.566 12.772C221.649 12.004 220.273 11.62 218.438 11.62H211.718L213.574 9.572V22.532ZM239.577 30.82C237.828 30.82 236.153 30.5747 234.553 30.084C232.953 29.572 231.684 28.9213 230.745 28.132L232.185 24.9C233.081 25.604 234.19 26.1907 235.513 26.66C236.836 27.1293 238.19 27.364 239.577 27.364C240.75 27.364 241.7 27.236 242.425 26.98C243.15 26.724 243.684 26.3827 244.025 25.956C244.366 25.508 244.537 25.0067 244.537 24.452C244.537 23.7693 244.292 23.2253 243.801 22.82C243.31 22.3933 242.67 22.0627 241.881 21.828C241.113 21.572 240.249 21.3373 239.289 21.124C238.35 20.9107 237.401 20.6653 236.441 20.388C235.502 20.0893 234.638 19.716 233.849 19.268C233.081 18.7987 232.452 18.18 231.961 17.412C231.47 16.644 231.225 15.6627 231.225 14.468C231.225 13.252 231.545 12.1427 232.185 11.14C232.846 10.116 233.838 9.30533 235.161 8.708C236.505 8.08933 238.201 7.78 240.249 7.78C241.593 7.78 242.926 7.95067 244.249 8.292C245.572 8.63333 246.724 9.124 247.705 9.764L246.393 12.996C245.39 12.3987 244.356 11.9613 243.289 11.684C242.222 11.3853 241.198 11.236 240.217 11.236C239.065 11.236 238.126 11.3747 237.401 11.652C236.697 11.9293 236.174 12.292 235.833 12.74C235.513 13.188 235.353 13.7 235.353 14.276C235.353 14.9587 235.588 15.5133 236.057 15.94C236.548 16.3453 237.177 16.6653 237.945 16.9C238.734 17.1347 239.609 17.3693 240.569 17.604C241.529 17.8173 242.478 18.0627 243.417 18.34C244.377 18.6173 245.241 18.98 246.009 19.428C246.798 19.876 247.428 20.484 247.897 21.252C248.388 22.02 248.633 22.9907 248.633 24.164C248.633 25.3587 248.302 26.468 247.641 27.492C247.001 28.4947 246.009 29.3053 244.665 29.924C243.321 30.5213 241.625 30.82 239.577 30.82Z" fill="black"/>
</svg>
